<svg width="17" height="17" viewBox="0 0 17 17" fill="none" xmlns="http://www.w3.org/2000/svg">
<path d="M15.5834 16.1147H1.41675C1.12633 16.1147 0.885498 15.8739 0.885498 15.5835C0.885498 15.2931 1.12633 15.0522 1.41675 15.0522H15.5834C15.8738 15.0522 16.1147 15.2931 16.1147 15.5835C16.1147 15.8739 15.8738 16.1147 15.5834 16.1147Z" fill="#4B65B2"/>
<path d="M2.62109 15.5834H1.55859L1.594 7.06217C1.594 6.46008 1.87026 5.90052 2.34484 5.53218L7.30318 1.67176C8.00443 1.12634 8.98901 1.12634 9.69734 1.67176L14.6557 5.52509C15.1232 5.89342 15.4065 6.46717 15.4065 7.06217V15.5834H14.344V7.06926C14.344 6.80009 14.2165 6.53801 14.004 6.36801L9.04568 2.51467C8.72693 2.26676 8.28068 2.26676 7.95484 2.51467L2.9965 6.37511C2.784 6.53802 2.6565 6.80009 2.6565 7.06926L2.62109 15.5834Z" fill="#4B65B2"/>
<path d="M10.2709 16.1144H6.72925C6.43883 16.1144 6.198 15.8736 6.198 15.5832V13.104C6.198 12.2257 6.91341 11.5103 7.79175 11.5103H9.20841C10.0867 11.5103 10.8022 12.2257 10.8022 13.104V15.5832C10.8022 15.8736 10.5613 16.1144 10.2709 16.1144ZM7.2605 15.0519H9.73966V13.104C9.73966 12.8136 9.49883 12.5728 9.20841 12.5728H7.79175C7.50133 12.5728 7.2605 12.8136 7.2605 13.104V15.0519Z" fill="#4B65B2"/>
<path d="M6.72925 10.2707H5.31258C4.63258 10.2707 4.073 9.71109 4.073 9.03109V7.96859C4.073 7.28859 4.63258 6.729 5.31258 6.729H6.72925C7.40925 6.729 7.96883 7.28859 7.96883 7.96859V9.03109C7.96883 9.71109 7.40925 10.2707 6.72925 10.2707ZM5.31258 7.7915C5.21341 7.7915 5.1355 7.86942 5.1355 7.96859V9.03109C5.1355 9.13025 5.21341 9.20817 5.31258 9.20817H6.72925C6.82841 9.20817 6.90633 9.13025 6.90633 9.03109V7.96859C6.90633 7.86942 6.82841 7.7915 6.72925 7.7915H5.31258Z" fill="#4B65B2"/>
<path d="M11.6875 10.2707H10.2708C9.59083 10.2707 9.03125 9.71109 9.03125 9.03109V7.96859C9.03125 7.28859 9.59083 6.729 10.2708 6.729H11.6875C12.3675 6.729 12.9271 7.28859 12.9271 7.96859V9.03109C12.9271 9.71109 12.3675 10.2707 11.6875 10.2707ZM10.2708 7.7915C10.1717 7.7915 10.0938 7.86942 10.0938 7.96859V9.03109C10.0938 9.13025 10.1717 9.20817 10.2708 9.20817H11.6875C11.7867 9.20817 11.8646 9.13025 11.8646 9.03109V7.96859C11.8646 7.86942 11.7867 7.7915 11.6875 7.7915H10.2708Z" fill="#4B65B2"/>
<path d="M13.4585 5.48975C13.1681 5.48975 12.9272 5.256 12.9272 4.96559L12.9131 3.36475H10.3276C10.0372 3.36475 9.79639 3.12391 9.79639 2.8335C9.79639 2.54308 10.0372 2.30225 10.3276 2.30225H13.4443C13.7347 2.30225 13.9756 2.53599 13.9756 2.82641L13.9968 4.95141C13.9897 5.24891 13.756 5.48975 13.4585 5.48975C13.4656 5.48975 13.4585 5.48975 13.4585 5.48975Z" fill="#4B65B2"/>
</svg>
