<svg fill="none" xmlns="http://www.w3.org/2000/svg" viewBox="0 0 63 63"> <rect width="63" height="63" rx="10" fill="#EAF9FF"/> <path d="M41.0132 23.8L33.0932 19.2267C31.7999 18.48 30.1999 18.48 28.8932 19.2267L20.9865 23.8C19.6932 24.5467 18.8932 25.9333 18.8932 27.44V36.56C18.8932 38.0533 19.6932 39.44 20.9865 40.2L28.9065 44.7733C30.1999 45.52 31.7999 45.52 33.1065 44.7733L41.0265 40.2C42.3199 39.4533 43.1199 38.0667 43.1199 36.56V27.44C43.1065 25.9333 42.3065 24.56 41.0132 23.8ZM30.9999 25.7867C32.7199 25.7867 34.1065 27.1733 34.1065 28.8933C34.1065 30.6133 32.7199 32 30.9999 32C29.2799 32 27.8932 30.6133 27.8932 28.8933C27.8932 27.1867 29.2799 25.7867 30.9999 25.7867ZM34.5732 38.2133H27.4265C26.3465 38.2133 25.7199 37.0133 26.3199 36.12C27.2265 34.7733 28.9865 33.8667 30.9999 33.8667C33.0132 33.8667 34.7732 34.7733 35.6799 36.12C36.2799 37 35.6399 38.2133 34.5732 38.2133Z" fill="#13BBE6"/> </svg>