<svg xmlns="http://www.w3.org/2000/svg" fill="none" viewBox="1.4 1.25 21.2 21.5"> <path d="M12.15 19.35C11.74 19.35 11.4 19.01 11.4 18.6V16.5C11.4 16.09 11.74 15.75 12.15 15.75C12.56 15.75 12.9 16.09 12.9 16.5V18.6C12.9 19.01 12.56 19.35 12.15 19.35Z" fill="#ffffff"/> <path d="M17.9 22.75H6.39999V21C6.39999 19.48 7.62999 18.25 9.14999 18.25H15.15C16.67 18.25 17.9 19.48 17.9 21V22.75ZM7.89999 21.25H16.4V21C16.4 20.31 15.84 19.75 15.15 19.75H9.14999C8.45999 19.75 7.89999 20.31 7.89999 21V21.25Z" fill="#ffffff"/> <path d="M18.15 22.75H6.14999C5.73999 22.75 5.39999 22.41 5.39999 22C5.39999 21.59 5.73999 21.25 6.14999 21.25H18.15C18.56 21.25 18.9 21.59 18.9 22C18.9 22.41 18.56 22.75 18.15 22.75Z" fill="#ffffff"/> <path d="M18.43 12.4405C18.22 12.4405 18.01 12.3505 17.86 12.1805C17.67 11.9605 17.62 11.6505 17.74 11.3905C18.08 10.6105 18.25 9.78055 18.25 8.91055V5.91055C18.25 5.56055 18.19 5.22055 18.07 4.86055C18.06 4.83055 18.05 4.79055 18.04 4.75055C18.01 4.60055 18 4.45055 18 4.31055C18 3.90055 18.34 3.56055 18.75 3.56055H19.35C21.14 3.56055 22.6 5.06055 22.6 6.91055C22.6 8.44055 21.97 9.95055 20.88 11.0405C20.86 11.0605 20.8 11.1105 20.79 11.1205C20.2 11.6105 19.53 12.1605 18.63 12.4105C18.56 12.4305 18.5 12.4405 18.43 12.4405ZM19.68 5.09055C19.73 5.36055 19.75 5.64055 19.75 5.91055V8.91055C19.75 9.32055 19.72 9.71055 19.66 10.1105C19.72 10.0605 19.77 10.0205 19.83 9.97055C20.63 9.17055 21.1 8.05055 21.1 6.91055C21.1 6.01055 20.49 5.25055 19.68 5.09055Z" fill="#ffffff"/> <path d="M5.57999 12.3996C5.49999 12.3996 5.42999 12.3896 5.34999 12.3596C4.52999 12.0996 3.75999 11.6196 3.11999 10.9796C1.96999 9.70961 1.39999 8.31961 1.39999 6.84961C1.39999 5.02961 2.82999 3.59961 4.64999 3.59961H5.29999C5.54999 3.59961 5.78999 3.72961 5.92999 3.93961C6.06999 4.14961 6.08999 4.41961 5.98999 4.64961C5.82999 5.00961 5.74999 5.41961 5.74999 5.84961V8.84961C5.74999 9.70961 5.91999 10.5496 6.26999 11.3496C6.38999 11.6196 6.32999 11.9296 6.13999 12.1496C5.98999 12.3096 5.78999 12.3996 5.57999 12.3996ZM4.29999 5.12961C3.48999 5.28961 2.89999 5.98961 2.89999 6.84961C2.89999 7.93961 3.33999 8.98961 4.20999 9.94961C4.24999 9.99961 4.29999 10.0396 4.34999 10.0796C4.27999 9.66961 4.24999 9.25961 4.24999 8.84961V5.84961C4.24999 5.60961 4.26999 5.36961 4.29999 5.12961Z" fill="#ffffff"/> <path d="M12 16.75C7.73 16.75 4.25 13.27 4.25 9V6C4.25 3.38 6.38 1.25 9 1.25H15C17.62 1.25 19.75 3.38 19.75 6V9C19.75 13.27 16.27 16.75 12 16.75ZM9 2.75C7.21 2.75 5.75 4.21 5.75 6V9C5.75 12.45 8.55 15.25 12 15.25C15.45 15.25 18.25 12.45 18.25 9V6C18.25 4.21 16.79 2.75 15 2.75H9Z" fill="#ffffff"/> </svg>