<svg fill="none" xmlns="http://www.w3.org/2000/svg" viewBox="1.25 1.25 21.5 21.5"> <path d="M15 22.75H9.00003C3.57003 22.75 1.25003 20.43 1.25003 15V8.99997C1.25003 3.56997 3.57003 1.24997 9.00003 1.24997H14C14.41 1.24997 14.75 1.58997 14.75 1.99997C14.75 2.40997 14.41 2.74997 14 2.74997H9.00003C4.39003 2.74997 2.75003 4.38997 2.75003 8.99997V15C2.75003 19.61 4.39003 21.25 9.00003 21.25H15C19.61 21.25 21.25 19.61 21.25 15V9.99997C21.25 9.58997 21.59 9.24997 22 9.24997C22.41 9.24997 22.75 9.58997 22.75 9.99997V15C22.75 20.43 20.43 22.75 15 22.75Z" fill="white"/> <path d="M22 10.75H18C14.58 10.75 13.25 9.41997 13.25 5.99997V1.99997C13.25 1.69997 13.43 1.41997 13.71 1.30997C13.99 1.18997 14.31 1.25997 14.53 1.46997L22.53 9.46997C22.74 9.67997 22.81 10.01 22.69 10.29C22.57 10.57 22.3 10.75 22 10.75ZM14.75 3.80997V5.99997C14.75 8.57997 15.42 9.24997 18 9.24997H20.19L14.75 3.80997Z" fill="white"/> <path d="M13 13.75H7.00003C6.59003 13.75 6.25003 13.41 6.25003 13C6.25003 12.59 6.59003 12.25 7.00003 12.25H13C13.41 12.25 13.75 12.59 13.75 13C13.75 13.41 13.41 13.75 13 13.75Z" fill="white"/> <path d="M11 17.75H7.00003C6.59003 17.75 6.25003 17.41 6.25003 17C6.25003 16.59 6.59003 16.25 7.00003 16.25H11C11.41 16.25 11.75 16.59 11.75 17C11.75 17.41 11.41 17.75 11 17.75Z" fill="white"/> </svg>