<svg fill="none" xmlns="http://www.w3.org/2000/svg" viewBox="2 1.25 19.5 22.23"> <path d="M10.81 16.95C10.62 16.95 10.43 16.88 10.28 16.73L8.78003 15.23C8.49003 14.94 8.49003 14.46 8.78003 14.17C9.07003 13.88 9.55003 13.88 9.84003 14.17L10.81 15.14L14.28 11.67C14.57 11.38 15.05 11.38 15.34 11.67C15.63 11.96 15.63 12.44 15.34 12.73L11.34 16.73C11.2 16.88 11 16.95 10.81 16.95Z" fill="white"/> <path d="M14 6.74997H10C9.04003 6.74997 7.25003 6.74997 7.25003 3.99997C7.25003 1.24997 9.04003 1.24997 10 1.24997H14C14.96 1.24997 16.75 1.24997 16.75 3.99997C16.75 4.95997 16.75 6.74997 14 6.74997ZM10 2.74997C9.01003 2.74997 8.75003 2.74997 8.75003 3.99997C8.75003 5.24997 9.01003 5.24997 10 5.24997H14C15.25 5.24997 15.25 4.98997 15.25 3.99997C15.25 2.74997 14.99 2.74997 14 2.74997H10Z" fill="white"/> <path d="M14.75 23.4809H8.75003C3.13003 23.4809 2.00003 20.9009 2.00003 16.7309V10.7309C2.00003 6.17086 3.65003 4.22086 7.71003 4.01086C8.12003 3.99086 8.48003 4.30086 8.50003 4.72086C8.52003 5.14086 8.20003 5.48086 7.79003 5.50086C4.95003 5.66086 3.50003 6.51086 3.50003 10.7309V16.7309C3.50003 20.4309 4.23003 21.9809 8.75003 21.9809H14.75C19.27 21.9809 20 20.4309 20 16.7309V10.7309C20 6.51086 18.55 5.66086 15.71 5.50086C15.3 5.48086 14.98 5.12086 15 4.71086C15.02 4.30086 15.37 3.98086 15.79 4.00086C19.85 4.22086 21.5 6.17086 21.5 10.7209V16.7209C21.5 20.9009 20.37 23.4809 14.75 23.4809Z" fill="white"/> </svg>