<svg width="20" height="20" viewBox="0 0 20 20" fill="none" xmlns="http://www.w3.org/2000/svg">
<path d="M19.555 8.7225L18.205 7.1425C17.955 6.8425 17.745 6.2825 17.745 5.8825V4.1825C17.745 3.1225 16.875 2.2525 15.815 2.2525H14.115C13.715 2.2525 13.145 2.0425 12.845 1.7925L11.265 0.4425C10.575 -0.1475 9.445 -0.1475 8.755 0.4425L7.155 1.7925C6.855 2.0425 6.295 2.2525 5.895 2.2525H4.165C3.105 2.2525 2.235 3.1225 2.235 4.1825V5.8825C2.235 6.2725 2.035 6.8325 1.785 7.1325L0.435 8.7225C-0.145 9.4225 -0.145 10.5425 0.435 11.2225L1.785 12.8125C2.035 13.1025 2.235 13.6725 2.235 14.0625V15.7725C2.235 16.8325 3.105 17.7025 4.165 17.7025H5.905C6.295 17.7025 6.865 17.9125 7.165 18.1625L8.745 19.5125C9.435 20.1025 10.565 20.1025 11.255 19.5125L12.835 18.1625C13.135 17.9125 13.695 17.7025 14.095 17.7025H15.795C16.855 17.7025 17.725 16.8325 17.725 15.7725V14.0725C17.725 13.6725 17.935 13.1125 18.185 12.8125L19.535 11.2325C20.145 10.5525 20.145 9.4225 19.555 8.7225ZM9.245 6.1125C9.245 5.7025 9.585 5.3625 9.995 5.3625C10.405 5.3625 10.745 5.7025 10.745 6.1125V10.9425C10.745 11.3525 10.405 11.6925 9.995 11.6925C9.585 11.6925 9.245 11.3525 9.245 10.9425V6.1125ZM9.995 14.8525C9.445 14.8525 8.995 14.4025 8.995 13.8525C8.995 13.3025 9.435 12.8525 9.995 12.8525C10.545 12.8525 10.995 13.3025 10.995 13.8525C10.995 14.4025 10.555 14.8525 9.995 14.8525Z" fill="#3E9037"/>
</svg>
