<svg fill="none" xmlns="http://www.w3.org/2000/svg" viewBox="1.02 2.36 18.94 16.28"> <path d="M6.58624 10.4999C6.58624 12.6602 8.33971 14.4137 10.5 14.4137C12.6603 14.4137 14.4137 12.6602 14.4137 10.4999C14.4137 8.33965 12.6603 6.58618 10.5 6.58618C8.33971 6.58618 6.58624 8.33965 6.58624 10.4999ZM8.14874 10.4999C8.14874 9.20397 9.20403 8.14868 10.5 8.14868C11.796 8.14868 12.8512 9.20397 12.8512 10.4999C12.8512 11.7959 11.796 12.8512 10.5 12.8512C9.20403 12.8512 8.14874 11.7959 8.14874 10.4999Z" fill="#979797" stroke="#979797" stroke-width="0.25"/> <path d="M1.86354 7.80744L1.8634 7.80765C1.38411 8.55824 1.14813 9.53449 1.14813 10.5032C1.14813 11.4718 1.38404 12.4459 1.86341 13.1922C4.01576 16.5619 7.15787 18.5174 10.5 18.5174C13.8335 18.5174 16.9755 16.5618 19.1279 13.1922L19.1279 13.1922C19.6072 12.4416 19.8431 11.4654 19.8431 10.4966C19.8431 9.52808 19.6072 8.55397 19.1279 7.80763C16.9755 4.43803 13.8335 2.48242 10.5 2.48242C7.16655 2.48242 4.02454 4.43803 1.86354 7.80744ZM3.18524 8.65113L3.18543 8.65084C5.05885 5.71061 7.72712 4.04492 10.5 4.04492C13.2729 4.04492 15.9412 5.71061 17.8146 8.65084L17.8148 8.65113C18.1265 9.13749 18.2872 9.81434 18.2872 10.4999C18.2872 11.1855 18.1265 11.8623 17.8148 12.3487L17.8146 12.349C15.9412 15.2892 13.2729 16.9549 10.5 16.9549C7.72712 16.9549 5.05885 15.2892 3.18543 12.349L3.18524 12.3487C2.87347 11.8623 2.71282 11.1855 2.71282 10.4999C2.71282 9.81434 2.87347 9.13749 3.18524 8.65113Z" fill="#979797" stroke="#979797" stroke-width="0.25"/> </svg>