<svg width="25" height="24" viewBox="0 0 25 24" fill="none" xmlns="http://www.w3.org/2000/svg">
<path d="M20.1441 11.75H16.6628C16.2455 11.75 15.8994 11.41 15.8994 11V4.01C15.8994 3.27 16.1946 2.58 16.7239 2.06C17.2532 1.54 17.9556 1.25 18.7088 1.25H18.719C19.9914 1.26 21.1925 1.75 22.1087 2.64C23.0248 3.55 23.5236 4.75 23.5236 6V8.42C23.5337 10.41 22.1697 11.75 20.1441 11.75ZM17.4263 10.25H20.1441C21.3249 10.25 22.0069 9.58 22.0069 8.42V6C22.0069 5.14 21.6608 4.32 21.0399 3.7C20.4189 3.1 19.5842 2.76 18.719 2.75C18.719 2.75 18.719 2.75 18.7088 2.75C18.3729 2.75 18.0472 2.88 17.8029 3.12C17.5586 3.36 17.4263 3.67 17.4263 4.01V10.25Z" fill="#292D32"/>
<path d="M9.53724 23.33C9.05883 23.33 8.61095 23.15 8.27503 22.81L6.5853 21.14C6.49369 21.05 6.35118 21.04 6.24939 21.12L4.49859 22.4C3.95909 22.8 3.24656 22.87 2.63581 22.57C2.02506 22.27 1.64844 21.67 1.64844 21V6C1.64844 2.98 3.40942 1.25 6.48351 1.25H18.6984C19.1158 1.25 19.4619 1.59 19.4619 2C19.4619 2.41 19.1158 2.75 18.6984 2.75C17.9961 2.75 17.4261 3.31 17.4261 4V21C17.4261 21.67 17.0494 22.27 16.4387 22.57C15.8279 22.87 15.1154 22.81 14.5759 22.41L12.8353 21.13C12.7335 21.05 12.591 21.07 12.5095 21.15L10.7995 22.83C10.4635 23.15 10.0157 23.33 9.53724 23.33ZM6.3919 19.57C6.86014 19.57 7.3182 19.74 7.66429 20.09L9.35402 21.76C9.41509 21.82 9.49653 21.83 9.53724 21.83C9.57796 21.83 9.65939 21.82 9.72047 21.76L11.4306 20.08C12.0617 19.46 13.0592 19.4 13.7616 19.93L15.492 21.2C15.604 21.28 15.7058 21.25 15.7567 21.22C15.8076 21.19 15.8992 21.13 15.8992 21V4C15.8992 3.55 16.0112 3.12 16.2046 2.75H6.48351C4.22375 2.75 3.1753 3.78 3.1753 6V21C3.1753 21.14 3.26692 21.2 3.31781 21.23C3.37889 21.26 3.48068 21.28 3.58247 21.2L5.32309 19.92C5.63865 19.69 6.01527 19.57 6.3919 19.57Z" fill="#292D32"/>
<path d="M12.5911 13.76H9.53736C9.12002 13.76 8.77393 13.42 8.77393 13.01C8.77393 12.6 9.12002 12.26 9.53736 12.26H12.5911C13.0084 12.26 13.3545 12.6 13.3545 13.01C13.3545 13.42 13.0084 13.76 12.5911 13.76Z" fill="#292D32"/>
<path d="M12.5911 9.76001H9.53736C9.12002 9.76001 8.77393 9.42001 8.77393 9.01001C8.77393 8.60001 9.12002 8.26001 9.53736 8.26001H12.5911C13.0084 8.26001 13.3545 8.60001 13.3545 9.01001C13.3545 9.42001 13.0084 9.76001 12.5911 9.76001Z" fill="#292D32"/>
<path d="M6.45346 10.01C5.89361 10.01 5.43555 9.56001 5.43555 9.01001C5.43555 8.46001 5.89361 8.01001 6.45346 8.01001C7.01331 8.01001 7.47137 8.46001 7.47137 9.01001C7.47137 9.56001 7.01331 10.01 6.45346 10.01Z" fill="#292D32"/>
<path d="M6.45346 14.01C5.89361 14.01 5.43555 13.56 5.43555 13.01C5.43555 12.46 5.89361 12.01 6.45346 12.01C7.01331 12.01 7.47137 12.46 7.47137 13.01C7.47137 13.56 7.01331 14.01 6.45346 14.01Z" fill="#292D32"/>
</svg>
