<svg fill="none" xmlns="http://www.w3.org/2000/svg" viewBox="0 0 63 63"> <rect width="63" height="63" rx="10" fill="#EAF9FF"/> <path d="M31 18.6667C27.5067 18.6667 24.6667 21.5067 24.6667 25C24.6667 28.4267 27.3467 31.2 30.84 31.32C30.9467 31.3067 31.0534 31.3067 31.1334 31.32C31.16 31.32 31.1734 31.32 31.2 31.32C31.2134 31.32 31.2134 31.32 31.2267 31.32C34.64 31.2 37.32 28.4267 37.3334 25C37.3334 21.5067 34.4934 18.6667 31 18.6667Z" fill="#13BBE6"/> <path d="M37.7733 34.88C34.0533 32.4 27.9867 32.4 24.24 34.88C22.5467 36 21.6133 37.5333 21.6133 39.1733C21.6133 40.8133 22.5467 42.3333 24.2267 43.4533C26.0933 44.7067 28.5467 45.3333 31 45.3333C33.4533 45.3333 35.9067 44.7067 37.7733 43.4533C39.4533 42.32 40.3867 40.8 40.3867 39.1467C40.3733 37.52 39.4533 35.9867 37.7733 34.88ZM34.1067 38.08L30.7467 41.44C30.5867 41.6 30.3733 41.68 30.16 41.68C29.9467 41.68 29.7333 41.5867 29.5733 41.44L27.8933 39.76C27.5733 39.44 27.5733 38.9067 27.8933 38.5867C28.2133 38.2667 28.7467 38.2667 29.0667 38.5867L30.16 39.68L32.9333 36.9067C33.2533 36.5867 33.7867 36.5867 34.1067 36.9067C34.44 37.2267 34.44 37.76 34.1067 38.08Z" fill="#13BBE6"/> </svg>