<svg fill="none" xmlns="http://www.w3.org/2000/svg" viewBox="3.18 1.25 21.85 21.5"> <path d="M14.0985 22.75C13.3548 22.75 12.5999 22.58 11.9339 22.23L5.34005 18.8C4.00797 18.1 3.17542 16.81 3.17542 15.42V8.57999C3.17542 7.18999 4.00797 5.89999 5.34005 5.19999L11.9339 1.77C13.266 1.07 14.92 1.07 16.2631 1.77L22.857 5.19999C24.189 5.89999 25.0216 7.18999 25.0216 8.57999V15.42C25.0216 16.81 24.189 18.1 22.857 18.8L16.2631 22.23C15.5971 22.58 14.8423 22.75 14.0985 22.75ZM14.0985 2.74998C13.6434 2.74998 13.1771 2.85998 12.7664 3.06998L6.17261 6.49998C5.35115 6.92998 4.84052 7.71999 4.84052 8.57999V15.42C4.84052 16.27 5.35115 17.07 6.17261 17.5L12.7664 20.93C13.5879 21.36 14.6091 21.36 15.4306 20.93L22.0244 17.5C22.8459 17.07 23.3565 16.28 23.3565 15.42V8.57999C23.3565 7.72999 22.8459 6.92998 22.0244 6.49998L15.4306 3.06998C15.0199 2.85998 14.5536 2.74998 14.0985 2.74998Z" fill="#33275E"/> <path d="M14.0982 11.7501C12.2111 11.7501 10.6792 10.37 10.6792 8.67004C10.6792 6.97004 12.2111 5.59009 14.0982 5.59009C15.9853 5.59009 17.5172 6.97004 17.5172 8.67004C17.5172 10.37 15.9853 11.7501 14.0982 11.7501ZM14.0982 7.09009C13.1325 7.09009 12.3443 7.80004 12.3443 8.67004C12.3443 9.54004 13.1325 10.2501 14.0982 10.2501C15.064 10.2501 15.8521 9.54004 15.8521 8.67004C15.8521 7.80004 15.064 7.09009 14.0982 7.09009Z" fill="#33275E"/> <path d="M18.5386 17.4101C18.0834 17.4101 17.706 17.0701 17.706 16.6601C17.706 15.2801 16.0853 14.1501 14.0983 14.1501C12.1112 14.1501 10.4905 15.2801 10.4905 16.6601C10.4905 17.0701 10.1131 17.4101 9.65799 17.4101C9.20286 17.4101 8.82544 17.0701 8.82544 16.6601C8.82544 14.4501 11.1899 12.6501 14.0983 12.6501C17.0067 12.6501 19.3711 14.4501 19.3711 16.6601C19.3711 17.0701 18.9937 17.4101 18.5386 17.4101Z" fill="#33275E"/> </svg>